<svg width="372" height="87" viewBox="0 0 372 87" fill="none" xmlns="http://www.w3.org/2000/svg">
<path d="M51.5468 27.04V23.712C51.5468 23.1147 51.4188 22.6027 51.1628 22.176C50.9494 21.7067 50.2881 21.472 49.1788 21.472H46.4268C45.7014 21.472 45.2108 21.6427 44.9548 21.984C44.6988 22.3253 44.5708 22.7733 44.5708 23.328V27.936C44.5708 28.7467 44.9334 29.6213 45.6588 30.56C46.4268 31.456 47.8774 32.3307 50.0108 33.184C50.0961 33.2267 50.4588 33.3547 51.0988 33.568C51.7814 33.7813 52.5708 34.1013 53.4668 34.528C54.3628 34.9547 55.2801 35.5093 56.2188 36.192C57.2001 36.832 58.0108 37.6 58.6508 38.496C59.1201 39.136 59.5041 40.0107 59.8028 41.12C60.1014 42.2293 60.2508 43.232 60.2508 44.128V51.872H60.1868C60.1014 52.8533 59.8668 53.8133 59.4828 54.752C59.0988 55.6907 58.5014 56.544 57.6908 57.312C56.9228 58.08 55.8988 58.72 54.6188 59.232C53.3814 59.7013 51.8668 59.9573 50.0748 60H43.4188C41.7548 60 40.3681 59.7227 39.2588 59.168C38.1921 58.6133 37.3174 57.9093 36.6348 57.056C35.9521 56.16 35.4614 55.1787 35.1628 54.112C34.9068 53.0453 34.7788 52 34.7788 50.976V46.304H43.4828V49.632L39.7708 51.744H48.3468C49.7548 51.744 50.4588 51.0187 50.4588 49.568V47.264C50.4588 46.7093 50.3734 46.1333 50.2028 45.536C50.0748 44.896 49.8188 44.2773 49.4348 43.68C49.0508 43.04 48.5174 42.4427 47.8348 41.888C47.1948 41.3333 46.3628 40.864 45.3388 40.48C43.4188 39.712 41.7761 38.9227 40.4108 38.112C39.0881 37.2587 38.0001 36.32 37.1468 35.296C36.3361 34.2293 35.7388 33.0773 35.3548 31.84C34.9708 30.56 34.7788 29.1307 34.7788 27.552V21.664H34.8428C34.9281 20.2133 35.2908 18.976 35.9308 17.952C36.5708 16.8853 37.3601 16.0107 38.2988 15.328C39.2801 14.6453 40.3468 14.1547 41.4988 13.856C42.6508 13.5147 43.7814 13.344 44.8908 13.344H51.5468C53.2108 13.344 54.5974 13.6213 55.7068 14.176C56.8161 14.7307 57.7121 15.4347 58.3948 16.288C59.0774 17.1413 59.5468 18.1227 59.8028 19.232C60.1014 20.2987 60.2508 21.344 60.2508 22.368V27.04H51.5468ZM65.6598 13.344H75.1318V60H65.6598V13.344ZM80.0318 13.344H89.6318V48.928L85.5998 51.296H101.216V60H80.0318V13.344ZM123.423 13.344H132.895L124.895 60H113.439L105.887 13.344H115.295L118.495 40.096L114.911 42.72H119.903L123.423 13.344ZM137.664 13.344H157.376V22.048H147.2V33.12H153.024V41.12H147.2V49.12L143.424 51.296H157.376V60H137.664V13.344ZM183.839 46.752C185.205 47.9467 186.229 49.312 186.911 50.848C187.594 52.3413 188.085 53.7707 188.383 55.136C188.725 56.7573 188.895 58.3787 188.895 60H179.167C179.295 58.3787 179.231 56.8 178.975 55.264C178.762 53.9413 178.314 52.5973 177.631 51.232C176.991 49.824 175.989 48.672 174.623 47.776C174.154 47.4347 173.685 47.2 173.215 47.072C172.746 46.944 172.383 46.8373 172.127 46.752V60H162.847V13.344H178.783C179.722 13.344 180.703 13.4933 181.727 13.792C182.751 14.048 183.69 14.5173 184.543 15.2C185.397 15.8827 186.101 16.8 186.655 17.952C187.21 19.104 187.487 20.576 187.487 22.368V37.472C187.487 38.2827 187.402 39.1147 187.231 39.968C187.061 40.7787 186.783 41.568 186.399 42.336C186.015 43.0613 185.503 43.7227 184.863 44.32C184.266 44.9173 183.519 45.408 182.623 45.792C182.879 46.0053 183.114 46.1973 183.327 46.368C183.541 46.496 183.711 46.624 183.839 46.752ZM168.735 38.368H176.159C177.226 38.368 177.93 38.112 178.271 37.6C178.613 37.088 178.783 36.5973 178.783 36.128V23.2C178.783 22.6027 178.591 22.0907 178.207 21.664C177.823 21.1947 177.141 20.96 176.159 20.96H172.127V36.384L168.735 38.368Z" fill="#248C9D"/>
<path d="M192.844 13.344H202.444V48.928L198.412 51.296H214.028V60H192.844V13.344ZM219.66 13.344H229.132V60H219.66V13.344ZM233.968 13.344H239.664L247.984 31.84L244.08 33.824H250.288V13.344H260.272V60H254.064L245.168 40.48H243.76V60H233.968V13.344ZM266.097 13.344H275.569V60H266.097V13.344ZM280.405 13.344H286.101L294.421 31.84L290.517 33.824H296.725V13.344H306.709V60H300.501L291.605 40.48H290.197V60H280.405V13.344ZM327.831 25.632V20.96H323.863C322.881 20.96 322.199 21.1947 321.815 21.664C321.431 22.0907 321.239 22.6027 321.239 23.2V49.76L317.911 51.872H327.831V34.784H337.047V60H321.239C319.575 60 318.188 59.7227 317.079 59.168C315.969 58.6133 315.073 57.9093 314.391 57.056C313.751 56.16 313.281 55.1787 312.983 54.112C312.727 53.0453 312.599 52 312.599 50.976V22.368C312.599 20.576 312.876 19.104 313.431 17.952C313.985 16.8 314.689 15.8827 315.543 15.2C316.396 14.5173 317.313 14.048 318.295 13.792C319.319 13.4933 320.3 13.344 321.239 13.344H337.047V20.32L327.831 25.632Z" fill="white"/>
</svg>
