<svg width="919" height="868" viewBox="0 0 919 868" fill="none" xmlns="http://www.w3.org/2000/svg">
<g filter="url(#filter0_d)">
<path d="M12.5518 128.588C12.5518 57.5716 70.1219 0.00146484 141.138 0.00146484H777.413C848.43 0.00146484 906 57.5716 906 128.588V713.779C906 784.796 848.43 842.366 777.414 842.366H141.138C70.122 842.366 12.5518 784.796 12.5518 713.779V128.588Z" fill="black"/>
</g>
<path d="M329.104 283.352V236.912C329.104 228.577 327.317 221.432 323.745 215.478C320.768 208.928 311.54 205.654 296.059 205.654H257.657C247.535 205.654 240.688 208.035 237.115 212.799C233.543 217.562 231.757 223.813 231.757 231.553V295.856C231.757 307.168 236.818 319.374 246.939 332.472C257.656 344.976 277.9 357.181 307.669 369.089C308.86 369.685 313.921 371.471 322.852 374.448C332.378 377.425 343.393 381.89 355.896 387.844C368.399 393.798 381.2 401.538 394.299 411.064C407.993 419.995 419.305 430.712 428.236 443.216C434.785 452.146 440.144 464.352 444.311 479.832C448.479 495.312 450.563 509.304 450.563 521.807V629.871H449.67C448.479 643.565 445.205 656.962 439.846 670.06C434.487 683.159 426.152 695.067 414.84 705.784C404.123 716.501 389.834 725.432 371.972 732.576C354.705 739.126 333.569 742.698 308.562 743.293H215.681C192.461 743.293 173.111 739.423 157.63 731.683C142.746 723.943 130.54 714.119 121.014 702.211C111.488 689.708 104.641 676.014 100.473 661.129C96.9004 646.245 95.1143 631.657 95.1143 617.368V552.172H216.574V598.613L164.775 628.085H284.449C304.097 628.085 313.921 617.963 313.921 597.72V565.569C313.921 557.829 312.73 549.791 310.349 541.455C308.563 532.524 304.99 523.891 299.632 515.556C294.273 506.625 286.831 498.289 277.304 490.549C268.374 482.809 256.763 476.26 242.474 470.901C215.681 460.184 192.759 449.169 173.706 437.857C155.249 425.949 140.066 412.85 128.159 398.561C116.846 383.676 108.511 367.601 103.152 350.334C97.7935 332.472 95.1143 312.527 95.1143 290.497V208.333H96.0073C97.1981 188.09 102.259 170.823 111.19 156.534C120.121 141.649 131.136 129.443 144.234 119.917C157.928 110.391 172.813 103.544 188.889 99.3761C204.964 94.6129 220.742 92.2314 236.222 92.2314H329.104C352.324 92.2314 371.674 96.1015 387.154 103.842C402.635 111.582 415.137 121.406 424.664 133.313C434.19 145.221 440.739 158.915 444.311 174.396C448.479 189.28 450.563 203.868 450.563 218.157V283.352H329.104Z" fill="#248C9D"/>
<path d="M522.031 90.9482H655.995V587.506L599.73 620.55H817.644V742.01H522.031V416.479V90.9482Z" fill="white"/>
<defs>
<filter id="filter0_d" x="0.0067358" y="0.00146484" width="918.538" height="867.454" filterUnits="userSpaceOnUse" color-interpolation-filters="sRGB">
<feFlood flood-opacity="0" result="BackgroundImageFix"/>
<feColorMatrix in="SourceAlpha" type="matrix" values="0 0 0 0 0 0 0 0 0 0 0 0 0 0 0 0 0 0 127 0"/>
<feOffset dy="12.545"/>
<feGaussianBlur stdDeviation="6.27251"/>
<feColorMatrix type="matrix" values="0 0 0 0 0 0 0 0 0 0 0 0 0 0 0 0 0 0 0.25 0"/>
<feBlend mode="normal" in2="BackgroundImageFix" result="effect1_dropShadow"/>
<feBlend mode="normal" in="SourceGraphic" in2="effect1_dropShadow" result="shape"/>
</filter>
</defs>
</svg>
