<svg width="1026" height="1026" viewBox="0 0 1026 1026" fill="none" xmlns="http://www.w3.org/2000/svg">
<g filter="url(#filter0_d)">
<path d="M13 152.65C13 68.3436 77.4359 0 156.922 0H869.078C948.564 0 1013 68.3435 1013 152.649V847.351C1013 931.656 948.564 1000 869.078 1000H156.922C77.436 1000 13 931.657 13 847.351V152.65Z" fill="black"/>
</g>
<path d="M330.895 336.886V281.755C330.895 271.86 328.895 263.378 324.897 256.31C321.565 248.535 311.236 244.648 293.91 244.648H250.927C239.598 244.648 231.934 247.475 227.936 253.129C223.938 258.784 221.938 266.205 221.938 275.394V351.729C221.938 365.159 227.603 379.649 238.932 395.198C250.927 410.041 273.584 424.531 306.904 438.667C308.237 439.374 313.901 441.495 323.897 445.029C334.56 448.563 346.888 453.864 360.883 460.932C374.877 468 389.205 477.189 403.865 488.498C419.192 499.1 431.853 511.822 441.849 526.665C449.18 537.268 455.177 551.757 459.842 570.134C464.507 588.511 466.839 605.122 466.839 619.965V748.251H465.84C464.507 764.508 460.842 780.411 454.844 795.961C448.847 811.511 439.517 825.646 426.856 838.369C414.861 851.092 398.867 861.694 378.875 870.176C359.55 877.951 335.893 882.192 307.904 882.898H203.946C177.956 882.898 156.298 878.304 138.972 869.115C122.312 859.927 108.651 848.264 97.9883 834.128C87.3259 819.285 79.6624 803.029 74.9976 785.358C70.9992 767.688 69 750.371 69 733.408V656.012H204.945V711.143L146.969 746.13H280.915C302.906 746.13 313.901 734.115 313.901 710.083V671.915C313.901 662.727 312.569 653.185 309.903 643.289C307.904 632.687 303.906 622.438 297.908 612.543C291.91 601.941 283.58 592.045 272.918 582.857C262.922 573.668 249.927 565.893 233.934 559.532C203.946 546.81 178.289 533.733 156.965 520.304C136.306 506.168 119.313 490.618 105.985 473.654C93.3235 455.984 83.994 436.9 77.9964 416.403C71.9988 395.198 69 371.52 69 345.368V247.828H69.9996C71.3324 223.797 76.9968 203.299 86.9928 186.336C96.9888 168.665 109.317 154.176 123.978 142.867C139.305 131.558 155.965 123.429 173.958 118.482C191.951 112.827 209.61 110 226.937 110H330.895C356.884 110 378.542 114.594 395.869 123.783C413.195 132.971 427.189 144.634 437.851 158.77C448.513 172.906 455.844 189.163 459.842 207.54C464.507 225.21 466.839 242.527 466.839 259.491V336.886H330.895Z" fill="#248C9D"/>
<path d="M643 110H792.94V699.481L729.965 738.709H973.867V882.898H643V496.449V110Z" fill="white"/>
<defs>
<filter id="filter0_d" x="0.356179" y="0" width="1025.29" height="1025.29" filterUnits="userSpaceOnUse" color-interpolation-filters="sRGB">
<feFlood flood-opacity="0" result="BackgroundImageFix"/>
<feColorMatrix in="SourceAlpha" type="matrix" values="0 0 0 0 0 0 0 0 0 0 0 0 0 0 0 0 0 0 127 0"/>
<feOffset dy="12.6438"/>
<feGaussianBlur stdDeviation="6.32191"/>
<feColorMatrix type="matrix" values="0 0 0 0 0 0 0 0 0 0 0 0 0 0 0 0 0 0 0.25 0"/>
<feBlend mode="normal" in2="BackgroundImageFix" result="effect1_dropShadow"/>
<feBlend mode="normal" in="SourceGraphic" in2="effect1_dropShadow" result="shape"/>
</filter>
</defs>
</svg>
