<svg width="1024" height="905" viewBox="0 0 1024 905" fill="none" xmlns="http://www.w3.org/2000/svg">
<path d="M215.5 0.700073C206 1.50007 188.7 4.30004 178 6.60004C88.6999 26.3 26.2999 88.7001 6.59987 178C-0.000132084 208.1 0.499867 180.8 0.499867 512C0.499867 795.4 0.599867 812.1 2.29987 823C6.89987 852.3 15.6999 882 25.6999 901.4L27.1999 904.3L33.1999 892.4C71.4999 816.9 130.8 757.6 197 728.8L204.5 725.6L245 725C277.7 724.5 286.9 724 292.8 722.7C335.8 712.8 368.6 684.1 382.8 643.8C388.3 628.3 389.2 621.1 389.7 591.4L390.2 564.3L382.9 554.9C361.2 527.2 344.6 495.5 333.9 462C330.7 451.7 330.5 451.4 322.6 443.5C318.2 439.1 313 432.9 310.9 429.8C300.6 413.8 296.7 392.5 300.5 373.2C302 366 305.9 357 313 344.1L316 338.8V280.3C316 246.1 316.4 217.9 317.1 212.2C324 148.9 354.1 104 406.5 78.9C425.8 69.6 445.2 64.2 473.1 60.3C488.7 58.1 530.4 57.9 546 59.8C585.3 64.8 614.2 74.4 638.5 90.6C675.8 115.6 697.2 153 705.1 207.5C705.8 212.6 706.4 238.4 706.7 278.5L707.1 341.5L710.5 346.6C724 367.2 727 389.1 719.6 412.5C716 423.9 710.8 432.2 700.8 442.3C692.4 450.9 692 451.4 688.9 460.8C677.3 496.4 662 526.3 641.8 553.2L633 564.8V590.3C633 618.5 634 627.3 639 642.2C653.5 685.4 690.8 716.7 736 723.6C742.9 724.6 755.2 725 780.4 725H815.3L824.4 728.6C886.3 753.1 950 816 988.1 890.5C992.2 898.5 995.8 905 996.1 905C997.3 905 1006.8 882.2 1010.9 869.7C1015.3 855.9 1019.1 839.9 1021.7 823C1023.4 812.1 1023.5 795.4 1023.5 512C1023.5 180.8 1024 208.1 1017.4 178C997.7 88.7001 935.3 26.3 846 6.60004C815.9 3.71933e-05 844.8 0.600024 516.5 0.400024C353.2 0.400024 217.7 0.500073 215.5 0.700073Z" fill="url(#paint0_linear)" fill-opacity="0.8"/>
<defs>
<linearGradient id="paint0_linear" x1="520" y1="879" x2="512" y2="-256" gradientUnits="userSpaceOnUse">
<stop stop-color="#248C9D"/>
<stop offset="0.700987"/>
</linearGradient>
</defs>
</svg>
