<?xml version="1.0" standalone="no"?>
<!DOCTYPE svg PUBLIC "-//W3C//DTD SVG 20010904//EN"
 "http://www.w3.org/TR/2001/REC-SVG-20010904/DTD/svg10.dtd">
<svg version="1.0" xmlns="http://www.w3.org/2000/svg"
 width="1205.000000pt" height="343.000000pt" viewBox="0 0 1205.000000 343.000000"
 preserveAspectRatio="xMidYMid meet">
<metadata>
Created by potrace 1.16, written by Peter Selinger 2001-2019
</metadata>
<g transform="translate(0.000000,343.000000) scale(0.100000,-0.100000)"
fill="#000000" stroke="none">
<path d="M574 3395 c-177 -88 -363 -285 -468 -493 -41 -81 -84 -219 -96 -311
-22 -162 22 -303 130 -415 87 -91 206 -150 252 -125 29 15 22 61 -22 141 -50
94 -70 178 -70 303 0 235 96 498 241 658 38 43 54 55 60 45 12 -18 11 -1747
-1 -1926 -6 -105 -18 -178 -42 -273 -44 -175 -30 -197 87 -140 107 53 183 144
239 285 50 125 56 177 66 566 11 428 12 1431 2 1543 -9 95 -27 117 -127 152
-102 36 -165 34 -251 -10z"/>
<path d="M3941 3411 c-22 -22 -28 -68 -37 -294 l-7 -169 -152 7 c-84 4 -161 4
-172 1 -44 -14 -89 -181 -60 -221 15 -20 59 -24 346 -34 l23 -1 -4 -392 -4
-393 -36 -88 c-37 -90 -127 -234 -171 -275 l-24 -23 -5 88 c-3 73 -10 100 -36
156 -39 85 -93 139 -289 291 -84 65 -155 122 -158 127 -3 5 13 37 37 71 104
153 136 293 82 357 -32 38 -90 55 -166 48 -76 -7 -134 -36 -199 -99 -69 -69
-101 -140 -107 -238 -4 -72 -2 -78 35 -152 l40 -76 -77 -141 c-220 -399 -334
-557 -385 -537 -47 18 -57 177 -43 654 l12 382 -30 41 c-43 62 -169 132 -246
137 -192 14 -345 -171 -508 -613 l-55 -149 -5 350 -5 349 -45 22 c-56 26 -144
46 -190 41 -25 -2 -38 -10 -47 -28 -10 -20 -13 -168 -11 -700 l3 -675 23 -42
c35 -66 60 -78 170 -78 112 0 114 2 131 113 43 274 149 611 266 841 45 91 146
240 185 276 l33 30 -7 -210 c-19 -618 -19 -617 -3 -735 21 -156 42 -215 93
-267 69 -69 162 -71 274 -5 124 73 212 188 461 600 73 122 136 222 139 222 3
0 60 -53 126 -117 128 -126 176 -198 190 -288 9 -62 -11 -136 -50 -181 -27
-31 -39 -37 -82 -41 -56 -6 -85 6 -195 77 -81 52 -110 52 -159 2 -42 -45 -70
-100 -77 -151 -5 -33 -1 -41 35 -73 28 -25 67 -46 124 -64 77 -26 95 -28 248
-28 148 -1 172 1 230 22 184 66 327 204 442 426 l46 90 7 -49 c22 -167 77
-306 152 -386 72 -77 130 -104 228 -104 69 0 86 4 126 27 71 42 171 156 221
254 l45 86 18 -49 c33 -89 64 -141 119 -201 120 -129 294 -157 464 -74 66 32
169 125 209 188 15 24 31 44 34 44 4 0 11 -19 17 -42 37 -143 184 -248 331
-234 110 10 195 68 263 178 28 46 33 49 42 33 28 -48 96 -121 139 -151 90 -62
196 -79 312 -49 86 23 152 62 223 133 34 34 65 62 67 62 3 0 5 -26 5 -57 l0
-58 -127 -115 c-198 -181 -355 -339 -406 -411 -108 -152 -139 -279 -102 -417
16 -59 26 -74 84 -133 50 -50 81 -71 126 -88 247 -93 499 6 615 243 84 170
113 369 108 739 l-3 237 68 84 c170 211 342 506 457 786 28 69 54 128 58 132
4 3 54 8 112 10 l105 3 -1 -40 c0 -22 -10 -98 -23 -170 -20 -116 -22 -153 -19
-350 4 -212 5 -223 32 -295 52 -137 125 -223 233 -276 144 -71 300 -22 403
125 19 28 38 50 42 51 3 0 16 -16 28 -35 55 -89 174 -161 282 -172 167 -15
352 85 444 242 l28 48 16 -49 c44 -136 152 -227 285 -241 117 -12 218 43 285
154 l37 62 6 -69 c7 -85 19 -107 65 -127 49 -20 186 -28 239 -14 37 10 44 16
52 49 5 20 12 105 16 187 9 214 30 366 70 505 42 145 107 312 140 359 l23 33
6 -43 c3 -24 10 -129 16 -234 18 -315 44 -511 80 -609 22 -56 68 -109 113
-125 41 -16 143 -13 177 4 26 14 29 20 34 92 25 317 90 605 194 847 l29 68 7
-268 c8 -299 19 -443 42 -530 37 -146 119 -260 223 -311 74 -37 193 -40 257
-6 47 25 105 86 132 140 44 87 53 135 50 269 l-3 129 -30 0 c-33 0 -44 -21
-89 -176 -71 -240 -191 -238 -258 6 -21 77 -21 99 -22 537 l-1 456 -25 27
c-41 44 -178 106 -246 111 -108 9 -132 -21 -224 -292 -59 -172 -93 -296 -124
-444 l-23 -105 -6 80 c-4 44 -11 195 -17 335 -6 140 -16 269 -21 287 -31 97
-227 176 -319 128 -40 -20 -91 -129 -173 -365 -35 -102 -67 -192 -69 -200 -3
-8 -7 104 -10 249 -5 241 -7 266 -24 278 -25 18 -74 31 -168 46 -112 17 -111
18 -119 -214 -4 -100 -7 -308 -7 -462 0 -318 -4 -346 -75 -493 -50 -103 -98
-154 -146 -154 -68 0 -100 48 -125 192 -14 81 -16 155 -11 564 6 449 5 473
-12 488 -26 24 -109 54 -169 62 -90 12 -132 -12 -132 -73 l0 -36 -60 57 c-72
69 -128 95 -219 103 -106 9 -193 -21 -272 -95 -119 -109 -199 -264 -238 -458
-29 -147 -35 -262 -21 -453 l12 -170 -30 -64 c-83 -178 -220 -149 -277 58 -22
82 -31 316 -16 430 7 50 26 151 42 225 41 181 46 264 21 310 -25 48 -82 75
-152 73 -30 -1 -118 -13 -194 -27 -77 -14 -144 -26 -150 -26 -7 0 -11 29 -11
81 0 80 0 81 -37 115 -36 32 -42 34 -111 34 -64 0 -79 -4 -120 -30 -76 -48
-119 -158 -102 -266 5 -34 17 -57 47 -90 l40 -44 -12 -52 c-36 -153 -166 -438
-275 -603 l-66 -100 6 511 6 511 -30 25 c-35 30 -113 51 -194 52 -50 1 -62 -3
-78 -23 -10 -13 -19 -37 -19 -53 l0 -31 -50 51 c-27 28 -75 63 -107 79 -51 24
-69 28 -148 28 -82 0 -97 -3 -156 -32 -155 -77 -275 -270 -330 -534 -22 -105
-29 -298 -20 -507 3 -79 1 -87 -33 -157 -63 -128 -135 -161 -200 -91 -64 67
-77 171 -77 586 0 179 3 386 7 462 7 136 7 136 -18 161 -29 29 -106 55 -188
63 -46 5 -59 3 -81 -15 -15 -11 -29 -35 -33 -52 l-6 -32 -55 52 c-68 64 -125
91 -213 98 -154 13 -281 -62 -386 -225 -92 -145 -139 -312 -156 -561 -14 -212
-67 -348 -180 -462 -87 -88 -140 -86 -182 8 -36 82 -47 184 -48 431 0 218 18
823 25 830 1 2 96 6 210 10 l208 7 20 28 c27 35 37 147 15 165 -8 6 -83 16
-179 22 -90 6 -188 13 -217 16 l-54 6 7 187 c4 103 4 197 1 208 -9 27 -86 60
-183 79 -98 18 -119 18 -142 -5z m1364 -1011 c36 -13 84 -72 105 -126 34 -92
43 -175 37 -363 -4 -145 -9 -193 -30 -272 -55 -210 -153 -330 -258 -316 -115
15 -176 155 -186 427 -11 298 56 551 168 631 51 36 101 42 164 19z m3916 10
c54 -15 112 -83 140 -166 23 -65 24 -82 23 -294 0 -200 -3 -234 -22 -305 -43
-157 -114 -275 -186 -309 -110 -52 -201 31 -241 223 -22 104 -28 245 -16 376
16 166 35 248 76 333 39 78 82 120 142 139 49 15 42 15 84 3z m-2435 -30 c69
-65 98 -179 98 -395 0 -381 -109 -647 -272 -663 -41 -4 -52 0 -80 23 -46 38
-78 99 -104 191 -29 106 -31 373 -4 509 34 173 97 295 180 347 46 28 145 21
182 -12z m131 -1612 c-12 -403 -77 -576 -230 -612 -40 -9 -106 11 -138 43 -82
82 -49 251 84 440 43 61 274 321 285 321 3 0 2 -87 -1 -192z"/>
</g>
</svg>
