<svg width="1412" height="1338" viewBox="0 0 1412 1338" fill="none" xmlns="http://www.w3.org/2000/svg">
<rect width="1411.93" height="1338" rx="204" fill="black"/>
<g filter="url(#filter0_d)">
<path d="M815.878 150.371H1020.47V936.794L934.54 989.128H1267.34V1181.49H815.878V150.371Z" fill="white"/>
</g>
<path d="M509.877 453.059V379.509C509.877 366.307 507.156 354.992 501.714 345.562C497.179 335.19 483.121 330.004 459.54 330.004H401.041C385.622 330.004 375.192 333.775 369.75 341.319C364.308 348.863 361.588 358.764 361.588 371.022V472.861C361.588 490.777 369.297 510.108 384.715 530.853C401.041 550.655 431.878 569.985 477.226 588.844C479.04 589.787 486.749 592.616 500.354 597.331C514.865 602.046 531.644 609.118 550.69 618.547C569.737 627.977 589.237 640.235 609.19 655.323C630.05 669.467 647.282 686.44 660.887 706.242C670.864 720.386 679.026 739.717 685.375 764.234C691.724 788.75 694.898 810.91 694.898 830.712V1001.86H693.538C691.724 1023.55 686.736 1044.76 678.573 1065.51C670.41 1086.25 657.713 1105.11 640.48 1122.08C624.155 1139.06 602.388 1153.2 575.178 1164.52C548.876 1174.89 516.679 1180.55 478.586 1181.49H337.099C301.728 1181.49 272.251 1175.36 248.67 1163.1C225.996 1150.84 207.403 1135.29 192.892 1116.43C178.38 1096.62 167.95 1074.94 161.601 1051.36C156.159 1027.79 153.438 1004.69 153.438 982.056V878.802H338.46V952.353L259.554 999.029H441.854C471.784 999.029 486.749 982.999 486.749 950.938V900.019C486.749 887.76 484.935 875.031 481.307 861.829C478.586 847.685 473.145 834.012 464.982 820.811C456.819 806.666 445.482 793.465 430.971 781.207C417.366 768.948 399.68 758.576 377.913 750.089C337.099 733.116 302.181 715.671 273.158 697.755C245.042 678.896 221.915 658.151 203.775 635.52C186.543 611.947 173.845 586.487 165.683 559.141C157.52 530.853 153.438 499.264 153.438 464.374V334.247H154.799C156.613 302.187 164.322 274.841 177.927 252.21C191.531 228.636 208.31 209.306 228.263 194.218C249.124 179.131 271.798 168.287 296.286 161.687C320.774 154.143 344.809 150.371 368.39 150.371H509.877C545.249 150.371 574.725 156.5 598.306 168.759C621.887 181.017 640.934 196.576 655.445 215.435C669.957 234.294 679.933 255.982 685.375 280.499C691.724 304.072 694.898 327.175 694.898 349.806V453.059H509.877Z" fill="#248C9D"/>
<defs>
<filter id="filter0_d" x="811.878" y="150.371" width="459.462" height="1039.12" filterUnits="userSpaceOnUse" color-interpolation-filters="sRGB">
<feFlood flood-opacity="0" result="BackgroundImageFix"/>
<feColorMatrix in="SourceAlpha" type="matrix" values="0 0 0 0 0 0 0 0 0 0 0 0 0 0 0 0 0 0 127 0"/>
<feOffset dy="4"/>
<feGaussianBlur stdDeviation="2"/>
<feColorMatrix type="matrix" values="0 0 0 0 0 0 0 0 0 0 0 0 0 0 0 0 0 0 0.25 0"/>
<feBlend mode="normal" in2="BackgroundImageFix" result="effect1_dropShadow"/>
<feBlend mode="normal" in="SourceGraphic" in2="effect1_dropShadow" result="shape"/>
</filter>
</defs>
</svg>
