<svg width="454" height="67" viewBox="0 0 454 67" fill="none" xmlns="http://www.w3.org/2000/svg">
<g filter="url(#filter0_d)">
<path d="M25.4821 17.4816V13.3502C25.4821 12.6087 25.3232 11.9731 25.0054 11.4434C24.7406 10.8608 23.9196 10.5695 22.5425 10.5695H19.1262C18.2258 10.5695 17.6166 10.7813 17.2988 11.2051C16.981 11.6288 16.8222 12.1849 16.8222 12.8735V18.5938C16.8222 19.6002 17.2724 20.686 18.1728 21.8513C19.1262 22.9636 20.927 24.0494 23.5753 25.1087C23.6813 25.1617 24.1315 25.3206 24.926 25.5854C25.7734 25.8502 26.7533 26.2475 27.8656 26.7771C28.9779 27.3068 30.1167 27.9953 31.2819 28.8428C32.5002 29.6373 33.5065 30.5907 34.301 31.703C34.8836 32.4975 35.3603 33.5833 35.7311 34.9604C36.1019 36.3375 36.2872 37.5822 36.2872 38.6945V48.3079H36.2078C36.1019 49.5261 35.8105 50.7178 35.3338 51.8831C34.8571 53.0484 34.1156 54.1077 33.1093 55.0611C32.1559 56.0145 30.8847 56.809 29.2957 57.4446C27.7597 58.0272 25.8794 58.345 23.6548 58.3979H15.3921C13.3264 58.3979 11.605 58.0537 10.2279 57.3651C8.9037 56.6765 7.8179 55.8026 6.97044 54.7433C6.12298 53.631 5.51387 52.4128 5.1431 51.0886C4.82531 49.7645 4.66641 48.4668 4.66641 47.1956V41.3958H15.4715V45.5272L10.8635 48.149H21.5097C23.2575 48.149 24.1315 47.2486 24.1315 45.4477V42.5875C24.1315 41.899 24.0256 41.1839 23.8137 40.4424C23.6548 39.6479 23.337 38.8799 22.8603 38.1384C22.3836 37.3439 21.7215 36.6024 20.8741 35.9138C20.0796 35.2252 19.0467 34.6426 17.7755 34.1659C15.3921 33.2125 13.3529 32.2326 11.6579 31.2263C10.016 30.167 8.66536 29.0017 7.60603 27.7305C6.59967 26.4064 5.85815 24.9763 5.38145 23.4403C4.90475 21.8513 4.66641 20.0769 4.66641 18.1171V10.8078H4.74586C4.85179 9.00696 5.302 7.47094 6.09649 6.19975C6.89099 4.87559 7.87086 3.78979 9.03612 2.94233C10.2543 2.09487 11.5785 1.48576 13.0086 1.115C14.4387 0.691265 15.8423 0.479399 17.2194 0.479399H25.4821C27.5478 0.479399 29.2692 0.82368 30.6463 1.51224C32.0235 2.2008 33.1357 3.07474 33.9832 4.13407C34.8307 5.19339 35.4133 6.41161 35.7311 7.78874C36.1019 9.11289 36.2872 10.4106 36.2872 11.6818V17.4816H25.4821ZM43.0019 0.479399H54.7604V58.3979H43.0019V0.479399ZM60.8433 0.479399H72.7607V44.6532L67.7554 47.5928H87.141V58.3979H60.8433V0.479399ZM114.709 0.479399H126.468L116.537 58.3979H102.315L92.9402 0.479399H104.619L108.592 33.6892L104.143 36.9466H110.34L114.709 0.479399ZM132.388 0.479399H156.858V11.2845H144.226V25.0292H151.456V34.9604H144.226V44.8916L139.538 47.5928H156.858V58.3979H132.388V0.479399ZM189.709 41.9519C191.404 43.435 192.676 45.1299 193.523 47.0367C194.37 48.8905 194.98 50.6649 195.35 52.3598C195.774 54.3725 195.986 56.3852 195.986 58.3979H183.91C184.069 56.3852 183.989 54.4255 183.671 52.5187C183.406 50.8767 182.85 49.2083 182.003 47.5134C181.208 45.7655 179.964 44.3354 178.269 43.2231C177.686 42.7994 177.103 42.5081 176.521 42.3492C175.938 42.1903 175.488 42.0579 175.17 41.9519V58.3979H163.65V0.479399H183.433C184.598 0.479399 185.816 0.66478 187.088 1.03554C188.359 1.35334 189.524 1.93597 190.583 2.78343C191.643 3.63089 192.517 4.76966 193.205 6.19975C193.894 7.62984 194.238 9.45717 194.238 11.6818V30.4318C194.238 31.4381 194.132 32.471 193.92 33.5303C193.708 34.5367 193.364 35.5165 192.887 36.4699C192.411 37.3704 191.775 38.1913 190.981 38.9329C190.239 39.6744 189.312 40.2835 188.2 40.7602C188.518 41.025 188.809 41.2634 189.074 41.4752C189.339 41.6341 189.551 41.793 189.709 41.9519ZM170.959 31.5441H180.176C181.5 31.5441 182.374 31.2263 182.797 30.5907C183.221 29.9551 183.433 29.346 183.433 28.7634V12.7146C183.433 11.9731 183.195 11.3375 182.718 10.8078C182.241 10.2252 181.394 9.93387 180.176 9.93387H175.17V29.0812L170.959 31.5441Z" fill="#248C9D"/>
<path d="M200.888 0.479399H212.806V44.6532L207.8 47.5928H227.186V58.3979H200.888V0.479399ZM234.177 0.479399H245.935V58.3979H234.177V0.479399ZM251.939 0.479399H259.01L269.338 23.4403L264.492 25.9032H272.198V0.479399H284.592V58.3979H276.886L265.842 34.1659H264.094V58.3979H251.939V0.479399ZM291.824 0.479399H303.583V58.3979H291.824V0.479399ZM309.586 0.479399H316.657L326.985 23.4403L322.139 25.9032H329.846V0.479399H342.24V58.3979H334.533L323.49 34.1659H321.742V58.3979H309.586V0.479399ZM368.46 15.7337V9.93387H363.534C362.316 9.93387 361.468 10.2252 360.992 10.8078C360.515 11.3375 360.277 11.9731 360.277 12.7146V45.6861L356.145 48.3079H368.46V27.0949H379.901V58.3979H360.277C358.211 58.3979 356.489 58.0537 355.112 57.3651C353.735 56.6765 352.623 55.8026 351.775 54.7433C350.981 53.631 350.398 52.4128 350.028 51.0886C349.71 49.7645 349.551 48.4668 349.551 47.1956V11.6818C349.551 9.45717 349.895 7.62984 350.584 6.19975C351.272 4.76966 352.146 3.63089 353.206 2.78343C354.265 1.93597 355.404 1.35334 356.622 1.03554C357.893 0.66478 359.111 0.479399 360.277 0.479399H379.901V9.13938L368.46 15.7337ZM403.782 0.479399H415.541V58.3979H403.782V0.479399ZM449.987 0.479399V11.2845H441.804V58.3979H429.966V11.2845H421.703V0.479399H449.987Z" fill="white"/>
</g>
<defs>
<filter id="filter0_d" x="0.666016" y="0.479492" width="453.321" height="65.9185" filterUnits="userSpaceOnUse" color-interpolation-filters="sRGB">
<feFlood flood-opacity="0" result="BackgroundImageFix"/>
<feColorMatrix in="SourceAlpha" type="matrix" values="0 0 0 0 0 0 0 0 0 0 0 0 0 0 0 0 0 0 127 0"/>
<feOffset dy="4"/>
<feGaussianBlur stdDeviation="2"/>
<feColorMatrix type="matrix" values="0 0 0 0 0 0 0 0 0 0 0 0 0 0 0 0 0 0 0.25 0"/>
<feBlend mode="normal" in2="BackgroundImageFix" result="effect1_dropShadow"/>
<feBlend mode="normal" in="SourceGraphic" in2="effect1_dropShadow" result="shape"/>
</filter>
</defs>
</svg>
