<svg width="973" height="127" viewBox="0 0 973 127" fill="none" xmlns="http://www.w3.org/2000/svg">
<g clip-path="url(#clip0)">
<path d="M45.5901 37.6985V28.6817C45.5901 27.0633 45.2433 25.6761 44.5497 24.5201C43.9717 23.2485 42.1799 22.6127 39.1743 22.6127H31.7181C29.7529 22.6127 28.4235 23.0751 27.7299 23.9999C27.0363 24.9247 26.6895 26.1385 26.6895 27.6413V40.1261C26.6895 42.3225 27.6721 44.6923 29.6373 47.2355C31.7181 49.6632 35.6485 52.033 41.4285 54.345C41.6597 54.4606 42.6423 54.8074 44.3763 55.3854C46.2259 55.9634 48.3645 56.8304 50.7922 57.9864C53.2198 59.1424 55.7052 60.6452 58.2484 62.4948C60.9072 64.2288 63.1036 66.3096 64.8376 68.7372C66.1092 70.4712 67.1496 72.841 67.9588 75.8466C68.768 78.8522 69.1726 81.5689 69.1726 83.9965V104.978H68.9992C68.768 107.637 68.1322 110.238 67.0918 112.781C66.0514 115.324 64.433 117.636 62.2366 119.717C60.1558 121.798 57.3814 123.532 53.9134 124.919C50.561 126.191 46.4571 126.884 41.6019 127H23.5683C19.0599 127 15.3028 126.249 12.2972 124.746C9.40721 123.243 7.0374 121.336 5.1878 119.024C3.33819 116.596 2.00879 113.937 1.19959 111.047C0.505981 108.157 0.15918 105.325 0.15918 102.551V89.8921H23.7417V98.9089L13.6844 104.631H36.9201C40.7349 104.631 42.6423 102.666 42.6423 98.7355V92.4931C42.6423 90.9903 42.4111 89.4297 41.9487 87.8113C41.6019 86.0773 40.9083 84.4011 39.8679 82.7827C38.8275 81.0487 37.3825 79.4302 35.5329 77.9274C33.7989 76.4246 31.5447 75.153 28.7703 74.1126C23.5683 72.0318 19.1177 69.8932 15.4184 67.6968C11.8348 65.3848 8.88701 62.8416 6.575 60.0672C4.3786 57.1772 2.76019 54.056 1.71979 50.7036C0.679382 47.2355 0.15918 43.3629 0.15918 39.0857V23.1329H0.33258C0.563781 19.2025 1.54639 15.85 3.28039 13.0756C5.0144 10.1856 7.153 7.81584 9.69621 5.96624C12.355 4.11663 15.245 2.78722 18.3663 1.97803C21.4875 1.05322 24.5509 0.59082 27.5565 0.59082H45.5901C50.0986 0.59082 53.8556 1.34222 56.8612 2.84503C59.8668 4.34783 62.2944 6.25524 64.144 8.56724C65.9936 10.8792 67.2652 13.538 67.9588 16.5436C68.768 19.4337 69.1726 22.2659 69.1726 25.0403V37.6985H45.5901ZM83.8277 0.59082H109.491V127H83.8277V0.59082ZM122.767 0.59082H148.777V97.0015L137.852 103.418H180.162V127H122.767V0.59082ZM240.331 0.59082H265.994L244.319 127H213.28L192.819 0.59082H218.309L226.979 73.0722L217.269 80.1817H230.794L240.331 0.59082ZM278.915 0.59082H332.323V24.1733H304.752V54.1716H320.531V75.8466H304.752V97.5217L294.521 103.418H332.323V127H278.915V0.59082ZM404.021 91.1059C407.72 94.3427 410.495 98.0419 412.344 102.204C414.194 106.25 415.523 110.122 416.332 113.822C417.257 118.214 417.72 122.607 417.72 127H391.363C391.709 122.607 391.536 118.33 390.842 114.168C390.264 110.585 389.051 106.943 387.201 103.244C385.467 99.4291 382.75 96.3079 379.051 93.8803C377.78 92.9555 376.508 92.3197 375.236 91.9729C373.965 91.6261 372.982 91.3371 372.289 91.1059V127H347.146V0.59082H390.322C392.866 0.59082 395.524 0.99542 398.299 1.80462C401.073 2.49822 403.616 3.76983 405.928 5.61943C408.24 7.46904 410.148 9.95445 411.651 13.0756C413.153 16.1968 413.905 20.1851 413.905 25.0403V65.9628C413.905 68.1592 413.674 70.4134 413.211 72.7254C412.749 74.9218 411.997 77.0604 410.957 79.1412C409.917 81.1065 408.529 82.8983 406.795 84.5167C405.177 86.1351 403.154 87.4645 400.726 88.5049C401.42 89.0829 402.056 89.6031 402.634 90.0655C403.212 90.4123 403.674 90.7591 404.021 91.1059ZM363.098 68.3904H383.213C386.103 68.3904 388.01 67.6968 388.935 66.3096C389.86 64.9224 390.322 63.593 390.322 62.3214V27.2945C390.322 25.6761 389.802 24.2889 388.762 23.1329C387.721 21.8613 385.872 21.2255 383.213 21.2255H372.289V63.015L363.098 68.3904Z" fill="#248C9D"/>
<path d="M428.419 0.59082H454.429V97.0015L443.505 103.418H485.815V127H428.419V0.59082ZM501.072 0.59082H526.736V127H501.072V0.59082ZM539.838 0.59082H555.271L577.813 50.7036L567.236 56.079H584.055V0.59082H611.106V127H594.286L570.183 74.1126H566.369V127H539.838V0.59082ZM626.889 0.59082H652.553V127H626.889V0.59082ZM665.655 0.59082H681.088L703.63 50.7036L693.053 56.079H709.872V0.59082H736.923V127H720.103L696 74.1126H692.186V127H665.655V0.59082ZM794.149 33.8837V21.2255H783.398C780.739 21.2255 778.89 21.8613 777.849 23.1329C776.809 24.2889 776.289 25.6761 776.289 27.2945V99.2557L767.272 104.978H794.149V58.68H819.119V127H776.289C771.78 127 768.023 126.249 765.018 124.746C762.012 123.243 759.585 121.336 757.735 119.024C756.001 116.596 754.729 113.937 753.92 111.047C753.227 108.157 752.88 105.325 752.88 102.551V25.0403C752.88 20.1851 753.631 16.1968 755.134 13.0756C756.637 9.95445 758.544 7.46904 760.856 5.61943C763.168 3.76983 765.654 2.49822 768.312 1.80462C771.087 0.99542 773.746 0.59082 776.289 0.59082H819.119V19.4915L794.149 33.8837ZM871.242 0.59082H896.905V127H871.242V0.59082ZM972.085 0.59082V24.1733H954.225V127H928.388V24.1733H910.355V0.59082H972.085Z" fill="#151515"/>
</g>
<defs>
<clipPath id="clip0">
<rect width="973" height="127" fill="white"/>
</clipPath>
</defs>
</svg>
