<svg width="979" height="158" viewBox="0 0 979 158" fill="none" xmlns="http://www.w3.org/2000/svg">
<g filter="url(#filter0_d)">
<path d="M430.419 0.59082H456.429V97.0015L445.505 103.417H487.815V127H430.419V0.59082Z" fill="white"/>
<path d="M503.072 0.59082H528.736V127H503.072V0.59082Z" fill="white"/>
<path d="M541.838 0.59082H557.271L579.813 50.7036L569.236 56.079H586.055V0.59082H613.106V127H596.286L572.183 74.1127H568.369V127H541.838V0.59082Z" fill="white"/>
<path d="M628.889 0.59082H654.553V127H628.889V0.59082Z" fill="white"/>
<path d="M667.655 0.59082H683.088L705.63 50.7036L695.053 56.079H711.872V0.59082H738.923V127H722.103L698 74.1127H694.186V127H667.655V0.59082Z" fill="white"/>
<path d="M796.149 33.8837V21.2255H785.398C782.74 21.2255 780.89 21.8613 779.85 23.1329C778.809 24.2889 778.289 25.6761 778.289 27.2945V99.2557L769.272 104.978H796.149V58.68H821.119V127H778.289C773.78 127 770.023 126.248 767.018 124.746C764.012 123.243 761.585 121.335 759.735 119.023C758.001 116.596 756.729 113.937 755.92 111.047C755.227 108.157 754.88 105.325 754.88 102.55V25.0403C754.88 20.1851 755.631 16.1969 757.134 13.0757C758.637 9.95445 760.544 7.46904 762.856 5.61943C765.168 3.76983 767.654 2.49823 770.312 1.80462C773.087 0.99542 775.746 0.59082 778.289 0.59082H821.119V19.4915L796.149 33.8837Z" fill="white"/>
<path d="M873.242 0.59082H898.905V127H873.242V0.59082Z" fill="white"/>
<path d="M974.085 0.59082V24.1733H956.225V127H930.388V24.1733H912.355V0.59082H974.085Z" fill="white"/>
</g>
<g filter="url(#filter1_d)">
<path d="M432.793 145.082L430 145.044C430 145.899 430.247 146.659 430.722 147.343C431.178 148.027 431.824 148.578 432.66 148.958C433.496 149.338 434.446 149.528 435.51 149.528C436.498 149.528 437.372 149.357 438.17 148.977C438.968 148.616 439.576 148.122 440.032 147.476C440.469 146.83 440.697 146.108 440.697 145.291C440.697 144.455 440.507 143.79 440.127 143.296C439.747 142.802 439.272 142.422 438.664 142.175C438.056 141.928 437.296 141.719 436.422 141.548C435.548 141.396 434.902 141.244 434.484 141.13C434.066 141.016 433.743 140.845 433.515 140.655C433.287 140.465 433.173 140.18 433.173 139.819C433.173 139.325 433.363 138.945 433.743 138.679C434.123 138.413 434.617 138.28 435.263 138.28C435.947 138.28 436.498 138.47 436.916 138.812C437.334 139.154 437.562 139.61 437.638 140.18H440.431C440.412 139.382 440.184 138.679 439.728 138.033C439.272 137.406 438.664 136.912 437.885 136.551C437.106 136.19 436.232 136 435.263 136C434.313 136 433.458 136.19 432.698 136.532C431.938 136.874 431.349 137.349 430.931 137.957C430.513 138.565 430.304 139.268 430.304 140.028C430.304 140.883 430.475 141.567 430.855 142.08C431.235 142.593 431.71 142.973 432.318 143.239C432.907 143.505 433.648 143.714 434.522 143.866C435.396 144.056 436.061 144.208 436.479 144.322C436.897 144.436 437.239 144.607 437.467 144.816C437.695 145.025 437.828 145.31 437.828 145.652C437.828 146.165 437.6 146.564 437.182 146.849C436.764 147.134 436.213 147.267 435.548 147.267C434.731 147.267 434.085 147.077 433.591 146.678C433.097 146.279 432.831 145.747 432.793 145.082Z" fill="#248C9D"/>
<path d="M450.011 136.114L454.894 144.474V149.414H457.744V144.474L462.627 136.114H459.454L456.319 141.567L453.336 136.114H450.011Z" fill="#248C9D"/>
<path d="M473.458 149.414H476.251V141.035L481.894 149.414H484.497V136.114H481.685V144.493L476.042 136.114H473.458V149.414Z" fill="#248C9D"/>
<path d="M496.452 149.414H504.584V146.963H499.302V136.114H496.452V149.414Z" fill="#248C9D"/>
<path d="M515.809 136.114V149.414H518.659V136.114H515.809Z" fill="#248C9D"/>
<path d="M530.867 139.211C530.335 140.237 530.069 141.415 530.069 142.764C530.069 144.113 530.316 145.291 530.848 146.317C531.38 147.343 532.121 148.141 533.071 148.692C534.021 149.262 535.142 149.528 536.396 149.528C537.27 149.528 538.03 149.376 538.695 149.034C539.341 148.711 539.873 148.293 540.272 147.761L540.576 149.414H542.552V142.023H536.605V144.284H539.911V144.455C539.778 145.329 539.398 145.994 538.771 146.45C538.125 146.906 537.403 147.115 536.586 147.115C535.446 147.115 534.572 146.716 533.926 145.918C533.28 145.12 532.976 144.075 532.976 142.764C532.976 141.928 533.109 141.168 533.413 140.503C533.698 139.857 534.116 139.344 534.667 138.964C535.199 138.603 535.845 138.413 536.586 138.413C537.384 138.413 538.049 138.641 538.581 139.078C539.113 139.515 539.455 140.104 539.645 140.845H542.457C542.343 139.895 542.02 139.059 541.507 138.318C540.994 137.596 540.329 137.026 539.493 136.608C538.657 136.209 537.707 136 536.662 136C535.313 136 534.135 136.285 533.147 136.836C532.159 137.406 531.399 138.185 530.867 139.211Z" fill="#248C9D"/>
<path d="M554.789 139.211C554.257 140.237 553.991 141.415 553.991 142.764C553.991 144.113 554.238 145.291 554.77 146.317C555.302 147.343 556.043 148.141 556.993 148.692C557.943 149.262 559.064 149.528 560.318 149.528C561.192 149.528 561.952 149.376 562.617 149.034C563.263 148.711 563.795 148.293 564.194 147.761L564.498 149.414H566.474V142.023H560.527V144.284H563.833V144.455C563.7 145.329 563.32 145.994 562.693 146.45C562.047 146.906 561.325 147.115 560.508 147.115C559.368 147.115 558.494 146.716 557.848 145.918C557.202 145.12 556.898 144.075 556.898 142.764C556.898 141.928 557.031 141.168 557.335 140.503C557.62 139.857 558.038 139.344 558.589 138.964C559.121 138.603 559.767 138.413 560.508 138.413C561.306 138.413 561.971 138.641 562.503 139.078C563.035 139.515 563.377 140.104 563.567 140.845H566.379C566.265 139.895 565.942 139.059 565.429 138.318C564.916 137.596 564.251 137.026 563.415 136.608C562.579 136.209 561.629 136 560.584 136C559.235 136 558.057 136.285 557.069 136.836C556.081 137.406 555.321 138.185 554.789 139.211Z" fill="#248C9D"/>
<path d="M583.707 136.114H580.857V145.329C580.857 145.899 580.724 146.298 580.496 146.564C580.249 146.83 579.85 146.944 579.299 146.944H577.722V149.414H580.173C581.294 149.414 582.168 149.11 582.776 148.483C583.384 147.875 583.707 147.001 583.707 145.88V136.114Z" fill="#248C9D"/>
<path d="M607.086 138.66L608.34 137.368L606.972 136L605.737 137.273C604.597 136.437 603.267 136 601.747 136C600.455 136 599.315 136.304 598.327 136.874C597.32 137.463 596.541 138.28 595.99 139.306C595.42 140.332 595.154 141.491 595.154 142.764C595.154 144.322 595.553 145.69 596.389 146.868L595.154 148.141L596.541 149.528L597.757 148.274C598.897 149.11 600.227 149.528 601.747 149.528C603.02 149.528 604.16 149.243 605.167 148.654C606.155 148.084 606.934 147.267 607.504 146.241C608.055 145.215 608.34 144.056 608.34 142.764C608.34 141.206 607.922 139.838 607.086 138.66ZM598.422 144.797C598.175 144.151 598.061 143.486 598.061 142.764C598.061 141.928 598.213 141.187 598.517 140.522C598.821 139.876 599.239 139.363 599.809 138.983C600.36 138.603 601.006 138.413 601.747 138.413C602.602 138.413 603.324 138.66 603.913 139.135L598.422 144.797ZM605.053 140.75C605.281 141.32 605.414 142.004 605.414 142.764C605.414 143.6 605.262 144.36 604.958 145.006C604.654 145.671 604.217 146.184 603.666 146.564C603.096 146.944 602.469 147.115 601.747 147.115C600.911 147.115 600.189 146.887 599.581 146.393L605.053 140.75Z" fill="#248C9D"/>
<path d="M625.171 136.114H619.756V149.414H622.606V144.949H625.019L627.242 149.414H630.396L627.774 144.284C628.477 143.942 629.028 143.448 629.446 142.802C629.845 142.156 630.054 141.396 630.054 140.541C630.054 139.667 629.845 138.888 629.446 138.204C629.028 137.539 628.458 137.026 627.717 136.665C626.976 136.304 626.121 136.114 625.171 136.114ZM622.606 142.574V138.489H624.943C625.608 138.489 626.14 138.679 626.539 139.04C626.938 139.42 627.147 139.914 627.147 140.541C627.147 141.168 626.938 141.662 626.539 142.023C626.14 142.403 625.608 142.574 624.943 142.574H622.606Z" fill="#248C9D"/>
<path d="M656.039 136.114V149.414H660.656C661.986 149.414 663.145 149.148 664.171 148.578C665.197 148.008 665.976 147.229 666.527 146.222C667.078 145.215 667.363 144.056 667.363 142.764C667.363 141.472 667.078 140.332 666.527 139.325C665.976 138.318 665.197 137.539 664.171 136.969C663.145 136.399 661.986 136.114 660.656 136.114H656.039ZM660.656 147.039H658.889V138.489H660.656C661.853 138.489 662.784 138.888 663.449 139.667C664.114 140.446 664.456 141.472 664.456 142.764C664.456 144.056 664.114 145.101 663.449 145.88C662.784 146.659 661.853 147.039 660.656 147.039Z" fill="#248C9D"/>
<path d="M678.81 136.114V149.414H681.66V136.114H678.81Z" fill="#248C9D"/>
<path d="M693.603 149.414H696.396V141.035L702.039 149.414H704.642V136.114H701.83V144.493L696.187 136.114H693.603V149.414Z" fill="#248C9D"/>
<path d="M716.596 136.114V149.414H725.735V146.963H719.446V143.885H724.386V141.548H719.446V138.565H725.526V136.114H716.596Z" fill="#248C9D"/>
<path d="M751.544 136.114V149.414H754.261V140.503L757.719 149.414H760.037L763.495 140.503V149.414H766.212V136.114H762.545L758.973 145.88L755.287 136.114H751.544Z" fill="#248C9D"/>
<path d="M780.929 136.114H778.079V143.676C778.079 145.576 778.535 147.039 779.466 148.027C780.378 149.034 781.746 149.528 783.532 149.528C785.318 149.528 786.667 149.034 787.598 148.027C788.529 147.039 789.004 145.576 789.004 143.676V136.114H786.154V143.828C786.154 144.911 785.926 145.728 785.508 146.26C785.09 146.811 784.425 147.077 783.532 147.077C782.62 147.077 781.974 146.811 781.556 146.26C781.138 145.728 780.929 144.911 780.929 143.828V136.114Z" fill="#248C9D"/>
<path d="M800.871 149.414H809.003V146.963H803.721V136.114H800.871V149.414Z" fill="#248C9D"/>
<path d="M820.228 136.114V149.414H823.078V136.114H820.228Z" fill="#248C9D"/>
<path d="M835.286 139.211C834.754 140.237 834.488 141.415 834.488 142.764C834.488 144.113 834.735 145.291 835.267 146.317C835.799 147.343 836.54 148.141 837.49 148.692C838.44 149.262 839.561 149.528 840.815 149.528C841.689 149.528 842.45 149.376 843.115 149.034C843.761 148.711 844.292 148.293 844.691 147.761L844.995 149.414H846.971V142.023H841.024V144.284H844.331V144.455C844.198 145.329 843.817 145.994 843.19 146.45C842.544 146.906 841.822 147.115 841.005 147.115C839.865 147.115 838.991 146.716 838.345 145.918C837.699 145.12 837.395 144.075 837.395 142.764C837.395 141.928 837.528 141.168 837.832 140.503C838.117 139.857 838.535 139.344 839.086 138.964C839.618 138.603 840.264 138.413 841.005 138.413C841.803 138.413 842.468 138.641 843 139.078C843.532 139.515 843.874 140.104 844.064 140.845H846.876C846.762 139.895 846.439 139.059 845.926 138.318C845.413 137.596 844.748 137.026 843.912 136.608C843.076 136.209 842.126 136 841.081 136C839.732 136 838.554 136.285 837.566 136.836C836.578 137.406 835.818 138.185 835.286 139.211Z" fill="#248C9D"/>
<path d="M858.942 136.114V149.414H861.792V143.923H867.074V149.414H869.924V136.114H867.074V141.453H861.792V136.114H858.942Z" fill="#248C9D"/>
<path d="M881.88 136.114V149.414H891.019V146.963H884.73V143.885H889.67V141.548H884.73V138.565H890.81V136.114H881.88Z" fill="#248C9D"/>
<path d="M901.48 136.114V138.565H905.318V149.414H908.168V138.565H912.006V136.114H901.48Z" fill="#248C9D"/>
<path d="M923.247 136.114V149.414H932.386V146.963H926.097V143.885H931.037V141.548H926.097V138.565H932.177V136.114H923.247Z" fill="#248C9D"/>
<path d="M949.207 136.114H943.792V149.414H946.642V144.949H949.055L951.278 149.414H954.432L951.81 144.284C952.513 143.942 953.064 143.448 953.482 142.802C953.881 142.156 954.09 141.396 954.09 140.541C954.09 139.667 953.881 138.888 953.482 138.204C953.064 137.539 952.494 137.026 951.753 136.665C951.012 136.304 950.157 136.114 949.207 136.114ZM946.642 142.574V138.489H948.979C949.644 138.489 950.176 138.679 950.575 139.04C950.974 139.42 951.183 139.914 951.183 140.541C951.183 141.168 950.974 141.662 950.575 142.023C950.176 142.403 949.644 142.574 948.979 142.574H946.642Z" fill="#248C9D"/>
</g>
<g filter="url(#filter2_d)">
<path d="M49.4309 38.1077V29.0909C49.4309 27.4725 49.0841 26.0853 48.3905 24.9293C47.8125 23.6577 46.0207 23.0219 43.0151 23.0219H35.5589C33.5937 23.0219 32.2643 23.4843 31.5707 24.4091C30.8771 25.3339 30.5303 26.5477 30.5303 28.0505V40.5353C30.5303 42.7317 31.5129 45.1015 33.4781 47.6447C35.5589 50.0724 39.4893 52.4422 45.2693 54.7542C45.5005 54.8698 46.4831 55.2166 48.2171 55.7946C50.0667 56.3726 52.2054 57.2396 54.633 58.3956C57.0606 59.5516 59.546 61.0544 62.0892 62.904C64.748 64.638 66.9444 66.7188 68.6784 69.1464C69.95 70.8804 70.9904 73.2502 71.7996 76.2558C72.6088 79.2614 73.0134 81.9781 73.0134 84.4057V105.387H72.84C72.6088 108.046 71.973 110.647 70.9326 113.19C69.8922 115.733 68.2738 118.045 66.0774 120.126C63.9966 122.207 61.2222 123.941 57.7542 125.328C54.4018 126.6 50.2979 127.293 45.4427 127.409H27.4091C22.9007 127.409 19.1436 126.658 16.138 125.155C13.248 123.652 10.8782 121.745 9.02862 119.433C7.17901 117.005 5.84961 114.346 5.0404 111.456C4.3468 108.566 4 105.734 4 102.96V90.3013H27.5825V99.3181L17.5252 105.04H40.7609C44.5757 105.04 46.4831 103.075 46.4831 99.1447V92.9023C46.4831 91.3995 46.2519 89.8389 45.7895 88.2205C45.4427 86.4865 44.7491 84.8103 43.7087 83.1919C42.6683 81.4579 41.2233 79.8395 39.3737 78.3366C37.6397 76.8338 35.3855 75.5622 32.6111 74.5218C27.4091 72.441 22.9585 70.3024 19.2592 68.106C15.6756 65.794 12.7278 63.2508 10.4158 60.4764C8.21941 57.5864 6.60101 54.4652 5.5606 51.1128C4.5202 47.6447 4 43.7721 4 39.4949V23.5421H4.1734C4.4046 19.6117 5.3872 16.2593 7.12121 13.4848C8.85522 10.5948 10.9938 8.22502 13.537 6.37542C16.1958 4.52581 19.0858 3.19641 22.2071 2.38721C25.3283 1.4624 28.3917 1 31.3973 1H49.4309C53.9394 1 57.6964 1.7514 60.702 3.25421C63.7076 4.75702 66.1352 6.66442 67.9848 8.97643C69.8344 11.2884 71.106 13.9472 71.7996 16.9529C72.6088 19.8429 73.0134 22.6751 73.0134 25.4495V38.1077H49.4309Z" fill="#248C9D"/>
<path d="M87.6685 1H113.332V127.409H87.6685V1Z" fill="#248C9D"/>
<path d="M126.608 1H152.618V97.4107L141.694 103.827H184.003V127.409H126.608V1Z" fill="#248C9D"/>
<path d="M244.172 1H269.835L248.16 127.409H217.121L196.66 1H222.15L230.82 73.4814L221.11 80.5909H234.635L244.172 1Z" fill="#248C9D"/>
<path d="M282.756 1H336.164V24.5825H308.593V54.5808H324.372V76.2558H308.593V97.9309L298.362 103.827H336.164V127.409H282.756V1Z" fill="#248C9D"/>
<path d="M407.862 91.5151C411.561 94.7519 414.336 98.4511 416.185 102.613C418.035 106.659 419.364 110.531 420.173 114.231C421.098 118.623 421.561 123.016 421.561 127.409H395.204C395.551 123.016 395.377 118.739 394.684 114.577C394.106 110.994 392.892 107.352 391.042 103.653C389.308 99.8383 386.592 96.7171 382.892 94.2895C381.621 93.3647 380.349 92.7289 379.078 92.3821C377.806 92.0353 376.823 91.7463 376.13 91.5151V127.409H350.987V1H394.163C396.707 1 399.365 1.4046 402.14 2.2138C404.914 2.90741 407.457 4.17901 409.769 6.02861C412.081 7.87822 413.989 10.3636 415.492 13.4848C416.994 16.606 417.746 20.5943 417.746 25.4495V66.372C417.746 68.5684 417.515 70.8226 417.052 73.1346C416.59 75.331 415.838 77.4696 414.798 79.5504C413.758 81.5157 412.37 83.3075 410.636 84.9259C409.018 86.5443 406.995 87.8737 404.567 88.9141C405.261 89.4921 405.897 90.0123 406.475 90.4747C407.053 90.8215 407.515 91.1683 407.862 91.5151ZM366.94 68.7996H387.054C389.944 68.7996 391.851 68.106 392.776 66.7188C393.701 65.3316 394.163 64.0022 394.163 62.7306V27.7037C394.163 26.0853 393.643 24.6981 392.603 23.5421C391.562 22.2705 389.713 21.6347 387.054 21.6347H376.13V63.4242L366.94 68.7996Z" fill="#248C9D"/>
</g>
<defs>
<filter id="filter0_d" x="426.419" y="0.59082" width="551.666" height="134.409" filterUnits="userSpaceOnUse" color-interpolation-filters="sRGB">
<feFlood flood-opacity="0" result="BackgroundImageFix"/>
<feColorMatrix in="SourceAlpha" type="matrix" values="0 0 0 0 0 0 0 0 0 0 0 0 0 0 0 0 0 0 127 0"/>
<feOffset dy="4"/>
<feGaussianBlur stdDeviation="2"/>
<feColorMatrix type="matrix" values="0 0 0 0 0 0 0 0 0 0 0 0 0 0 0 0 0 0 0.25 0"/>
<feBlend mode="normal" in2="BackgroundImageFix" result="effect1_dropShadow"/>
<feBlend mode="normal" in="SourceGraphic" in2="effect1_dropShadow" result="shape"/>
</filter>
<filter id="filter1_d" x="426" y="136" width="532.432" height="21.528" filterUnits="userSpaceOnUse" color-interpolation-filters="sRGB">
<feFlood flood-opacity="0" result="BackgroundImageFix"/>
<feColorMatrix in="SourceAlpha" type="matrix" values="0 0 0 0 0 0 0 0 0 0 0 0 0 0 0 0 0 0 127 0"/>
<feOffset dy="4"/>
<feGaussianBlur stdDeviation="2"/>
<feColorMatrix type="matrix" values="0 0 0 0 0 0 0 0 0 0 0 0 0 0 0 0 0 0 0.25 0"/>
<feBlend mode="normal" in2="BackgroundImageFix" result="effect1_dropShadow"/>
<feBlend mode="normal" in="SourceGraphic" in2="effect1_dropShadow" result="shape"/>
</filter>
<filter id="filter2_d" x="0" y="1" width="425.561" height="134.409" filterUnits="userSpaceOnUse" color-interpolation-filters="sRGB">
<feFlood flood-opacity="0" result="BackgroundImageFix"/>
<feColorMatrix in="SourceAlpha" type="matrix" values="0 0 0 0 0 0 0 0 0 0 0 0 0 0 0 0 0 0 127 0"/>
<feOffset dy="4"/>
<feGaussianBlur stdDeviation="2"/>
<feColorMatrix type="matrix" values="0 0 0 0 0 0 0 0 0 0 0 0 0 0 0 0 0 0 0.25 0"/>
<feBlend mode="normal" in2="BackgroundImageFix" result="effect1_dropShadow"/>
<feBlend mode="normal" in="SourceGraphic" in2="effect1_dropShadow" result="shape"/>
</filter>
</defs>
</svg>
