<svg width="973" height="127" viewBox="0 0 973 127" fill="none" xmlns="http://www.w3.org/2000/svg">
<path d="M45.5898 37.6987V28.6819C45.5898 27.0635 45.243 25.6763 44.5494 24.5203C43.9714 23.2487 42.1796 22.6129 39.174 22.6129H31.7178C29.7526 22.6129 28.4232 23.0753 27.7296 24.0001C27.036 24.9249 26.6892 26.1387 26.6892 27.6415V40.1263C26.6892 42.3227 27.6718 44.6925 29.637 47.2357C31.7178 49.6634 35.6482 52.0332 41.4282 54.3452C41.6594 54.4608 42.642 54.8076 44.376 55.3856C46.2256 55.9636 48.3642 56.8306 50.7919 57.9866C53.2195 59.1426 55.7049 60.6454 58.2481 62.495C60.9069 64.229 63.1033 66.3098 64.8373 68.7374C66.1089 70.4714 67.1493 72.8412 67.9585 75.8468C68.7677 78.8524 69.1723 81.5691 69.1723 83.9967V104.978H68.9989C68.7677 107.637 68.1319 110.238 67.0915 112.781C66.0511 115.324 64.4327 117.636 62.2363 119.717C60.1555 121.798 57.3811 123.532 53.9131 124.919C50.5607 126.191 46.4568 126.884 41.6016 127H23.568C19.0596 127 15.3025 126.249 12.2969 124.746C9.40692 123.243 7.03711 121.336 5.18751 119.024C3.3379 116.596 2.0085 113.937 1.1993 111.047C0.505693 108.157 0.158892 105.325 0.158892 102.551V89.8923H23.7414V98.9091L13.6841 104.631H36.9198C40.7346 104.631 42.642 102.666 42.642 98.7357V92.4933C42.642 90.9905 42.4108 89.4299 41.9484 87.8115C41.6016 86.0775 40.908 84.4013 39.8676 82.7829C38.8272 81.0489 37.3822 79.4304 35.5326 77.9276C33.7986 76.4248 31.5444 75.1532 28.77 74.1128C23.568 72.032 19.1174 69.8934 15.4181 67.697C11.8345 65.385 8.88672 62.8418 6.57471 60.0674C4.37831 57.1774 2.7599 54.0562 1.7195 50.7038C0.679094 47.2357 0.158892 43.3631 0.158892 39.0859V23.1331H0.332292C0.563493 19.2027 1.5461 15.8502 3.2801 13.0758C5.01411 10.1858 7.15271 7.81602 9.69592 5.96642C12.3547 4.11681 15.2447 2.7874 18.366 1.97821C21.4872 1.0534 24.5506 0.590998 27.5562 0.590998H45.5898C50.0983 0.590998 53.8553 1.3424 56.8609 2.84521C59.8665 4.34801 62.2941 6.25542 64.1437 8.56742C65.9933 10.8794 67.2649 13.5382 67.9585 16.5438C68.7677 19.4339 69.1723 22.2661 69.1723 25.0405V37.6987H45.5898ZM83.8274 0.590998H109.491V127H83.8274V0.590998ZM122.767 0.590998H148.777V97.0017L137.852 103.418H180.162V127H122.767V0.590998ZM240.331 0.590998H265.994L244.319 127H213.28L192.819 0.590998H218.309L226.979 73.0724L217.269 80.1819H230.794L240.331 0.590998ZM278.915 0.590998H332.323V24.1735H304.752V54.1718H320.531V75.8468H304.752V97.5219L294.521 103.418H332.323V127H278.915V0.590998ZM404.021 91.1061C407.72 94.3429 410.495 98.0421 412.344 102.204C414.194 106.25 415.523 110.122 416.332 113.822C417.257 118.214 417.72 122.607 417.72 127H391.363C391.709 122.607 391.536 118.33 390.842 114.168C390.264 110.585 389.051 106.943 387.201 103.244C385.467 99.4293 382.75 96.3081 379.051 93.8805C377.78 92.9557 376.508 92.3199 375.236 91.9731C373.965 91.6263 372.982 91.3373 372.289 91.1061V127H347.146V0.590998H390.322C392.866 0.590998 395.524 0.995598 398.299 1.8048C401.073 2.4984 403.616 3.77001 405.928 5.61961C408.24 7.46922 410.148 9.95463 411.651 13.0758C413.153 16.197 413.905 20.1853 413.905 25.0405V65.963C413.905 68.1594 413.674 70.4136 413.211 72.7256C412.749 74.922 411.997 77.0606 410.957 79.1414C409.917 81.1067 408.529 82.8985 406.795 84.5169C405.177 86.1353 403.154 87.4647 400.726 88.5051C401.42 89.0831 402.056 89.6033 402.634 90.0657C403.212 90.4125 403.674 90.7593 404.021 91.1061ZM363.098 68.3906H383.213C386.103 68.3906 388.01 67.697 388.935 66.3098C389.86 64.9226 390.322 63.5932 390.322 62.3216V27.2947C390.322 25.6763 389.802 24.2891 388.762 23.1331C387.721 21.8615 385.872 21.2257 383.213 21.2257H372.289V63.0152L363.098 68.3906Z" fill="#248C9D"/>
<path d="M428.419 0.590998H454.429V97.0017L443.505 103.418H485.815V127H428.419V0.590998ZM501.072 0.590998H526.736V127H501.072V0.590998ZM539.838 0.590998H555.271L577.813 50.7038L567.236 56.0792H584.055V0.590998H611.106V127H594.286L570.183 74.1128H566.369V127H539.838V0.590998ZM626.889 0.590998H652.553V127H626.889V0.590998ZM665.655 0.590998H681.088L703.63 50.7038L693.053 56.0792H709.872V0.590998H736.923V127H720.103L696 74.1128H692.186V127H665.655V0.590998ZM794.149 33.8839V21.2257H783.398C780.739 21.2257 778.89 21.8615 777.849 23.1331C776.809 24.2891 776.289 25.6763 776.289 27.2947V99.2559L767.272 104.978H794.149V58.6802H819.119V127H776.289C771.78 127 768.023 126.249 765.018 124.746C762.012 123.243 759.585 121.336 757.735 119.024C756.001 116.596 754.729 113.937 753.92 111.047C753.227 108.157 752.88 105.325 752.88 102.551V25.0405C752.88 20.1853 753.631 16.197 755.134 13.0758C756.637 9.95463 758.544 7.46922 760.856 5.61961C763.168 3.77001 765.654 2.4984 768.312 1.8048C771.087 0.995598 773.746 0.590998 776.289 0.590998H819.119V19.4917L794.149 33.8839ZM871.242 0.590998H896.905V127H871.242V0.590998ZM972.085 0.590998V24.1735H954.225V127H928.388V24.1735H910.355V0.590998H972.085Z" fill="white"/>
</svg>
