<svg width="973" height="160" viewBox="0 0 973 160" fill="none" xmlns="http://www.w3.org/2000/svg">
<g clip-path="url(#clip0)">
<path d="M45.5901 37.6985V28.6817C45.5901 27.0633 45.2433 25.6761 44.5497 24.5201C43.9717 23.2485 42.1799 22.6127 39.1743 22.6127H31.7181C29.7529 22.6127 28.4235 23.0751 27.7299 23.9999C27.0363 24.9247 26.6895 26.1385 26.6895 27.6413V40.1261C26.6895 42.3225 27.6721 44.6923 29.6373 47.2355C31.7181 49.6632 35.6485 52.033 41.4285 54.345C41.6597 54.4606 42.6423 54.8074 44.3763 55.3854C46.2259 55.9634 48.3645 56.8304 50.7922 57.9864C53.2198 59.1424 55.7052 60.6452 58.2484 62.4948C60.9072 64.2288 63.1036 66.3096 64.8376 68.7372C66.1092 70.4712 67.1496 72.841 67.9588 75.8466C68.768 78.8522 69.1726 81.5689 69.1726 83.9965V104.978H68.9992C68.768 107.637 68.1322 110.238 67.0918 112.781C66.0514 115.324 64.433 117.636 62.2366 119.717C60.1558 121.798 57.3814 123.532 53.9134 124.919C50.561 126.191 46.4571 126.884 41.6019 127H23.5683C19.0599 127 15.3028 126.249 12.2972 124.746C9.40721 123.243 7.0374 121.336 5.1878 119.024C3.33819 116.596 2.00879 113.937 1.19959 111.047C0.505981 108.157 0.15918 105.325 0.15918 102.551V89.8921H23.7417V98.9089L13.6844 104.631H36.9201C40.7349 104.631 42.6423 102.666 42.6423 98.7355V92.4931C42.6423 90.9903 42.4111 89.4297 41.9487 87.8113C41.6019 86.0773 40.9083 84.4011 39.8679 82.7827C38.8275 81.0487 37.3825 79.4302 35.5329 77.9274C33.7989 76.4246 31.5447 75.153 28.7703 74.1126C23.5683 72.0318 19.1177 69.8932 15.4184 67.6968C11.8348 65.3848 8.88701 62.8416 6.575 60.0672C4.3786 57.1772 2.76019 54.056 1.71979 50.7036C0.679382 47.2355 0.15918 43.3629 0.15918 39.0857V23.1329H0.33258C0.563781 19.2025 1.54639 15.85 3.28039 13.0756C5.0144 10.1856 7.153 7.81584 9.69621 5.96624C12.355 4.11663 15.245 2.78722 18.3663 1.97803C21.4875 1.05322 24.5509 0.59082 27.5565 0.59082H45.5901C50.0986 0.59082 53.8556 1.34222 56.8612 2.84503C59.8668 4.34783 62.2944 6.25524 64.144 8.56724C65.9936 10.8792 67.2652 13.538 67.9588 16.5436C68.768 19.4337 69.1726 22.2659 69.1726 25.0403V37.6985H45.5901ZM83.8277 0.59082H109.491V127H83.8277V0.59082ZM122.767 0.59082H148.777V97.0015L137.852 103.418H180.162V127H122.767V0.59082ZM240.331 0.59082H265.994L244.319 127H213.28L192.819 0.59082H218.309L226.979 73.0722L217.269 80.1817H230.794L240.331 0.59082ZM278.915 0.59082H332.323V24.1733H304.752V54.1716H320.531V75.8466H304.752V97.5217L294.521 103.418H332.323V127H278.915V0.59082ZM404.021 91.1059C407.72 94.3427 410.495 98.0419 412.344 102.204C414.194 106.25 415.523 110.122 416.332 113.822C417.257 118.214 417.72 122.607 417.72 127H391.363C391.709 122.607 391.536 118.33 390.842 114.168C390.264 110.585 389.051 106.943 387.201 103.244C385.467 99.4291 382.75 96.3079 379.051 93.8803C377.78 92.9555 376.508 92.3197 375.236 91.9729C373.965 91.6261 372.982 91.3371 372.289 91.1059V127H347.146V0.59082H390.322C392.866 0.59082 395.524 0.99542 398.299 1.80462C401.073 2.49822 403.616 3.76983 405.928 5.61943C408.24 7.46904 410.148 9.95445 411.651 13.0756C413.153 16.1968 413.905 20.1851 413.905 25.0403V65.9628C413.905 68.1592 413.674 70.4134 413.211 72.7254C412.749 74.9218 411.997 77.0604 410.957 79.1412C409.917 81.1065 408.529 82.8983 406.795 84.5167C405.177 86.1351 403.154 87.4645 400.726 88.5049C401.42 89.0829 402.056 89.6031 402.634 90.0655C403.212 90.4123 403.674 90.7591 404.021 91.1059ZM363.098 68.3904H383.213C386.103 68.3904 388.01 67.6968 388.935 66.3096C389.86 64.9224 390.322 63.593 390.322 62.3214V27.2945C390.322 25.6761 389.802 24.2889 388.762 23.1329C387.721 21.8613 385.872 21.2255 383.213 21.2255H372.289V63.015L363.098 68.3904Z" fill="#248C9D"/>
<path d="M45.5901 37.6985V28.6817C45.5901 27.0633 45.2433 25.6761 44.5497 24.5201C43.9717 23.2485 42.1799 22.6127 39.1743 22.6127H31.7181C29.7529 22.6127 28.4235 23.0751 27.7299 23.9999C27.0363 24.9247 26.6895 26.1385 26.6895 27.6413V40.1261C26.6895 42.3225 27.6721 44.6923 29.6373 47.2355C31.7181 49.6632 35.6485 52.033 41.4285 54.345C41.6597 54.4606 42.6423 54.8074 44.3763 55.3854C46.2259 55.9634 48.3645 56.8304 50.7922 57.9864C53.2198 59.1424 55.7052 60.6452 58.2484 62.4948C60.9072 64.2288 63.1036 66.3096 64.8376 68.7372C66.1092 70.4712 67.1496 72.841 67.9588 75.8466C68.768 78.8522 69.1726 81.5689 69.1726 83.9965V104.978H68.9992C68.768 107.637 68.1322 110.238 67.0918 112.781C66.0514 115.324 64.433 117.636 62.2366 119.717C60.1558 121.798 57.3814 123.532 53.9134 124.919C50.561 126.191 46.4571 126.884 41.6019 127H23.5683C19.0599 127 15.3028 126.249 12.2972 124.746C9.40721 123.243 7.0374 121.336 5.1878 119.024C3.33819 116.596 2.00879 113.937 1.19959 111.047C0.505981 108.157 0.15918 105.325 0.15918 102.551V89.8921H23.7417V98.9089L13.6844 104.631H36.9201C40.7349 104.631 42.6423 102.666 42.6423 98.7355V92.4931C42.6423 90.9903 42.4111 89.4297 41.9487 87.8113C41.6019 86.0773 40.9083 84.4011 39.8679 82.7827C38.8275 81.0487 37.3825 79.4302 35.5329 77.9274C33.7989 76.4246 31.5447 75.153 28.7703 74.1126C23.5683 72.0318 19.1177 69.8932 15.4184 67.6968C11.8348 65.3848 8.88701 62.8416 6.575 60.0672C4.3786 57.1772 2.76019 54.056 1.71979 50.7036C0.679382 47.2355 0.15918 43.3629 0.15918 39.0857V23.1329H0.33258C0.563781 19.2025 1.54639 15.85 3.28039 13.0756C5.0144 10.1856 7.153 7.81584 9.69621 5.96624C12.355 4.11663 15.245 2.78722 18.3663 1.97803C21.4875 1.05322 24.5509 0.59082 27.5565 0.59082H45.5901C50.0986 0.59082 53.8556 1.34222 56.8612 2.84503C59.8668 4.34783 62.2944 6.25524 64.144 8.56724C65.9936 10.8792 67.2652 13.538 67.9588 16.5436C68.768 19.4337 69.1726 22.2659 69.1726 25.0403V37.6985H45.5901ZM83.8277 0.59082H109.491V127H83.8277V0.59082ZM122.767 0.59082H148.777V97.0015L137.852 103.418H180.162V127H122.767V0.59082ZM240.331 0.59082H265.994L244.319 127H213.28L192.819 0.59082H218.309L226.979 73.0722L217.269 80.1817H230.794L240.331 0.59082ZM278.915 0.59082H332.323V24.1733H304.752V54.1716H320.531V75.8466H304.752V97.5217L294.521 103.418H332.323V127H278.915V0.59082ZM404.021 91.1059C407.72 94.3427 410.495 98.0419 412.344 102.204C414.194 106.25 415.523 110.122 416.332 113.822C417.257 118.214 417.72 122.607 417.72 127H391.363C391.709 122.607 391.536 118.33 390.842 114.168C390.264 110.585 389.051 106.943 387.201 103.244C385.467 99.4291 382.75 96.3079 379.051 93.8803C377.78 92.9555 376.508 92.3197 375.236 91.9729C373.965 91.6261 372.982 91.3371 372.289 91.1059V127H347.146V0.59082H390.322C392.866 0.59082 395.524 0.99542 398.299 1.80462C401.073 2.49822 403.616 3.76983 405.928 5.61943C408.24 7.46904 410.148 9.95445 411.651 13.0756C413.153 16.1968 413.905 20.1851 413.905 25.0403V65.9628C413.905 68.1592 413.674 70.4134 413.211 72.7254C412.749 74.9218 411.997 77.0604 410.957 79.1412C409.917 81.1065 408.529 82.8983 406.795 84.5167C405.177 86.1351 403.154 87.4645 400.726 88.5049C401.42 89.0829 402.056 89.6031 402.634 90.0655C403.212 90.4123 403.674 90.7591 404.021 91.1059ZM363.098 68.3904H383.213C386.103 68.3904 388.01 67.6968 388.935 66.3096C389.86 64.9224 390.322 63.593 390.322 62.3214V27.2945C390.322 25.6761 389.802 24.2889 388.762 23.1329C387.721 21.8613 385.872 21.2255 383.213 21.2255H372.289V63.015L363.098 68.3904Z" fill="url(#paint0_linear)"/>
<path d="M428.419 0.59082H454.429V97.0015L443.505 103.418H485.815V127H428.419V0.59082ZM501.072 0.59082H526.736V127H501.072V0.59082ZM539.838 0.59082H555.271L577.813 50.7036L567.236 56.079H584.055V0.59082H611.106V127H594.286L570.183 74.1126H566.369V127H539.838V0.59082ZM626.889 0.59082H652.553V127H626.889V0.59082ZM665.655 0.59082H681.088L703.63 50.7036L693.053 56.079H709.872V0.59082H736.923V127H720.103L696 74.1126H692.186V127H665.655V0.59082ZM794.149 33.8837V21.2255H783.398C780.739 21.2255 778.89 21.8613 777.849 23.1329C776.809 24.2889 776.289 25.6761 776.289 27.2945V99.2557L767.272 104.978H794.149V58.68H819.119V127H776.289C771.78 127 768.023 126.249 765.018 124.746C762.012 123.243 759.585 121.336 757.735 119.024C756.001 116.596 754.729 113.937 753.92 111.047C753.227 108.157 752.88 105.325 752.88 102.551V25.0403C752.88 20.1851 753.631 16.1968 755.134 13.0756C756.637 9.95445 758.544 7.46904 760.856 5.61943C763.168 3.76983 765.654 2.49822 768.312 1.80462C771.087 0.99542 773.746 0.59082 776.289 0.59082H819.119V19.4915L794.149 33.8837ZM871.242 0.59082H896.905V127H871.242V0.59082ZM972.085 0.59082V24.1733H954.225V127H928.388V24.1733H910.355V0.59082H972.085Z" fill="white"/>
<path d="M428.419 0.59082H454.429V97.0015L443.505 103.418H485.815V127H428.419V0.59082ZM501.072 0.59082H526.736V127H501.072V0.59082ZM539.838 0.59082H555.271L577.813 50.7036L567.236 56.079H584.055V0.59082H611.106V127H594.286L570.183 74.1126H566.369V127H539.838V0.59082ZM626.889 0.59082H652.553V127H626.889V0.59082ZM665.655 0.59082H681.088L703.63 50.7036L693.053 56.079H709.872V0.59082H736.923V127H720.103L696 74.1126H692.186V127H665.655V0.59082ZM794.149 33.8837V21.2255H783.398C780.739 21.2255 778.89 21.8613 777.849 23.1329C776.809 24.2889 776.289 25.6761 776.289 27.2945V99.2557L767.272 104.978H794.149V58.68H819.119V127H776.289C771.78 127 768.023 126.249 765.018 124.746C762.012 123.243 759.585 121.336 757.735 119.024C756.001 116.596 754.729 113.937 753.92 111.047C753.227 108.157 752.88 105.325 752.88 102.551V25.0403C752.88 20.1851 753.631 16.1968 755.134 13.0756C756.637 9.95445 758.544 7.46904 760.856 5.61943C763.168 3.76983 765.654 2.49822 768.312 1.80462C771.087 0.99542 773.746 0.59082 776.289 0.59082H819.119V19.4915L794.149 33.8837ZM871.242 0.59082H896.905V127H871.242V0.59082ZM972.085 0.59082V24.1733H954.225V127H928.388V24.1733H910.355V0.59082H972.085Z" fill="url(#paint1_linear)"/>
</g>
<g filter="url(#filter0_d)">
<path d="M429.823 147.728L427 147.691C427 148.513 427.25 149.243 427.73 149.9C428.191 150.558 428.843 151.087 429.688 151.452C430.533 151.817 431.493 152 432.569 152C433.567 152 434.45 151.836 435.257 151.471C436.063 151.124 436.678 150.649 437.139 150.028C437.58 149.407 437.811 148.713 437.811 147.928C437.811 147.125 437.619 146.486 437.235 146.011C436.851 145.537 436.37 145.171 435.756 144.934C435.142 144.697 434.373 144.496 433.49 144.331C432.607 144.185 431.954 144.039 431.532 143.93C431.109 143.82 430.783 143.656 430.552 143.473C430.322 143.291 430.207 143.017 430.207 142.67C430.207 142.195 430.399 141.83 430.783 141.574C431.167 141.319 431.666 141.191 432.319 141.191C433.01 141.191 433.567 141.374 433.989 141.702C434.412 142.031 434.642 142.469 434.719 143.017H437.542C437.523 142.25 437.292 141.574 436.831 140.954C436.37 140.351 435.756 139.876 434.969 139.53C434.181 139.183 433.298 139 432.319 139C431.359 139 430.495 139.183 429.727 139.511C428.959 139.84 428.363 140.296 427.941 140.881C427.518 141.465 427.307 142.14 427.307 142.871C427.307 143.692 427.48 144.35 427.864 144.843C428.248 145.336 428.728 145.701 429.343 145.956C429.938 146.212 430.687 146.413 431.57 146.559C432.453 146.742 433.125 146.888 433.548 146.997C433.97 147.107 434.316 147.271 434.546 147.472C434.777 147.673 434.911 147.947 434.911 148.275C434.911 148.768 434.681 149.152 434.258 149.426C433.836 149.699 433.279 149.827 432.607 149.827C431.781 149.827 431.128 149.645 430.629 149.261C430.13 148.878 429.861 148.367 429.823 147.728Z" fill="#248C9D"/>
<path d="M447.223 139.11L452.158 147.143V151.89H455.038V147.143L459.973 139.11H456.766L453.598 144.35L450.583 139.11H447.223Z" fill="#248C9D"/>
<path d="M470.919 151.89H473.742V143.838L479.445 151.89H482.076V139.11H479.234V147.162L473.531 139.11H470.919V151.89Z" fill="#248C9D"/>
<path d="M494.157 151.89H502.376V149.535H497.037V139.11H494.157V151.89Z" fill="#248C9D"/>
<path d="M513.72 139.11V151.89H516.6V139.11H513.72Z" fill="#248C9D"/>
<path d="M528.938 142.086C528.4 143.072 528.132 144.204 528.132 145.5C528.132 146.796 528.381 147.928 528.919 148.914C529.457 149.9 530.205 150.667 531.166 151.197C532.126 151.744 533.259 152 534.526 152C535.409 152 536.177 151.854 536.849 151.525C537.502 151.215 538.04 150.813 538.443 150.302L538.75 151.89H540.747V144.788H534.737V146.961H538.078V147.125C537.944 147.965 537.56 148.604 536.926 149.042C536.273 149.48 535.543 149.681 534.718 149.681C533.566 149.681 532.682 149.298 532.03 148.531C531.377 147.764 531.069 146.76 531.069 145.5C531.069 144.697 531.204 143.966 531.511 143.327C531.799 142.706 532.222 142.213 532.778 141.848C533.316 141.501 533.969 141.319 534.718 141.319C535.524 141.319 536.196 141.538 536.734 141.958C537.272 142.378 537.617 142.944 537.809 143.656H540.651C540.536 142.743 540.21 141.94 539.691 141.228C539.173 140.534 538.501 139.986 537.656 139.584C536.811 139.201 535.851 139 534.795 139C533.431 139 532.241 139.274 531.242 139.803C530.244 140.351 529.476 141.1 528.938 142.086Z" fill="#248C9D"/>
<path d="M553.114 142.086C552.576 143.072 552.307 144.204 552.307 145.5C552.307 146.796 552.557 147.928 553.094 148.914C553.632 149.9 554.381 150.667 555.341 151.197C556.301 151.744 557.434 152 558.701 152C559.585 152 560.353 151.854 561.025 151.525C561.678 151.215 562.215 150.813 562.618 150.302L562.926 151.89H564.923V144.788H558.912V146.961H562.254V147.125C562.119 147.965 561.735 148.604 561.102 149.042C560.449 149.48 559.719 149.681 558.893 149.681C557.741 149.681 556.858 149.298 556.205 148.531C555.552 147.764 555.245 146.76 555.245 145.5C555.245 144.697 555.379 143.966 555.687 143.327C555.975 142.706 556.397 142.213 556.954 141.848C557.492 141.501 558.144 141.319 558.893 141.319C559.7 141.319 560.372 141.538 560.909 141.958C561.447 142.378 561.793 142.944 561.985 143.656H564.827C564.711 142.743 564.385 141.94 563.867 141.228C563.348 140.534 562.676 139.986 561.831 139.584C560.986 139.201 560.026 139 558.97 139C557.607 139 556.416 139.274 555.418 139.803C554.419 140.351 553.651 141.1 553.114 142.086Z" fill="#248C9D"/>
<path d="M582.339 139.11H579.459V147.965C579.459 148.513 579.324 148.896 579.094 149.152C578.844 149.407 578.441 149.517 577.884 149.517H576.291V151.89H578.768C579.9 151.89 580.784 151.598 581.398 150.996C582.013 150.412 582.339 149.572 582.339 148.494V139.11Z" fill="#248C9D"/>
<path d="M605.966 141.556L607.233 140.315L605.851 139L604.603 140.223C603.451 139.42 602.106 139 600.57 139C599.265 139 598.113 139.292 597.114 139.84C596.096 140.406 595.309 141.191 594.752 142.177C594.176 143.163 593.907 144.277 593.907 145.5C593.907 146.997 594.311 148.312 595.155 149.444L593.907 150.667L595.309 152L596.538 150.795C597.69 151.598 599.034 152 600.57 152C601.857 152 603.009 151.726 604.027 151.16C605.025 150.612 605.812 149.827 606.388 148.841C606.945 147.855 607.233 146.742 607.233 145.5C607.233 144.003 606.811 142.688 605.966 141.556ZM597.21 147.454C596.96 146.833 596.845 146.194 596.845 145.5C596.845 144.697 596.999 143.985 597.306 143.346C597.613 142.725 598.036 142.232 598.612 141.867C599.169 141.501 599.821 141.319 600.57 141.319C601.434 141.319 602.164 141.556 602.759 142.013L597.21 147.454ZM603.911 143.565C604.142 144.112 604.276 144.77 604.276 145.5C604.276 146.303 604.123 147.034 603.815 147.655C603.508 148.294 603.067 148.787 602.51 149.152C601.934 149.517 601.3 149.681 600.57 149.681C599.725 149.681 598.996 149.462 598.381 148.987L603.911 143.565Z" fill="#248C9D"/>
<path d="M624.243 139.11H618.77V151.89H621.651V147.6H624.089L626.336 151.89H629.523L626.874 146.961C627.584 146.632 628.141 146.157 628.563 145.537C628.967 144.916 629.178 144.185 629.178 143.364C629.178 142.524 628.967 141.775 628.563 141.118C628.141 140.479 627.565 139.986 626.816 139.639C626.067 139.292 625.203 139.11 624.243 139.11ZM621.651 145.317V141.392H624.013C624.685 141.392 625.222 141.574 625.625 141.921C626.029 142.287 626.24 142.761 626.24 143.364C626.24 143.966 626.029 144.441 625.625 144.788C625.222 145.153 624.685 145.317 624.013 145.317H621.651Z" fill="#248C9D"/>
<path d="M655.439 139.11V151.89H660.105C661.449 151.89 662.62 151.635 663.657 151.087C664.694 150.539 665.481 149.791 666.038 148.823C666.595 147.855 666.883 146.742 666.883 145.5C666.883 144.258 666.595 143.163 666.038 142.195C665.481 141.228 664.694 140.479 663.657 139.931C662.62 139.383 661.449 139.11 660.105 139.11H655.439ZM660.105 149.608H658.319V141.392H660.105C661.315 141.392 662.256 141.775 662.928 142.524C663.6 143.272 663.945 144.258 663.945 145.5C663.945 146.742 663.6 147.746 662.928 148.494C662.256 149.243 661.315 149.608 660.105 149.608Z" fill="#248C9D"/>
<path d="M678.452 139.11V151.89H681.332V139.11H678.452Z" fill="#248C9D"/>
<path d="M693.401 151.89H696.224V143.838L701.927 151.89H704.558V139.11H701.716V147.162L696.013 139.11H693.401V151.89Z" fill="#248C9D"/>
<path d="M716.639 139.11V151.89H725.875V149.535H719.52V146.577H724.512V144.331H719.52V141.465H725.664V139.11H716.639Z" fill="#248C9D"/>
<path d="M751.958 139.11V151.89H754.704V143.327L758.198 151.89H760.541L764.036 143.327V151.89H766.781V139.11H763.076L759.466 148.494L755.74 139.11H751.958Z" fill="#248C9D"/>
<path d="M781.655 139.11H778.775V146.376C778.775 148.202 779.236 149.608 780.177 150.558C781.098 151.525 782.481 152 784.286 152C786.091 152 787.454 151.525 788.395 150.558C789.336 149.608 789.816 148.202 789.816 146.376V139.11H786.936V146.522C786.936 147.563 786.705 148.348 786.283 148.86C785.86 149.389 785.188 149.645 784.286 149.645C783.364 149.645 782.711 149.389 782.289 148.86C781.866 148.348 781.655 147.563 781.655 146.522V139.11Z" fill="#248C9D"/>
<path d="M801.809 151.89H810.027V149.535H804.689V139.11H801.809V151.89Z" fill="#248C9D"/>
<path d="M821.371 139.11V151.89H824.251V139.11H821.371Z" fill="#248C9D"/>
<path d="M836.59 142.086C836.052 143.072 835.783 144.204 835.783 145.5C835.783 146.796 836.033 147.928 836.57 148.914C837.108 149.9 837.857 150.667 838.817 151.197C839.777 151.744 840.91 152 842.177 152C843.061 152 843.829 151.854 844.501 151.525C845.154 151.215 845.691 150.813 846.095 150.302L846.402 151.89H848.399V144.788H842.389V146.961H845.73V147.125C845.595 147.965 845.211 148.604 844.578 149.042C843.925 149.48 843.195 149.681 842.369 149.681C841.217 149.681 840.334 149.298 839.681 148.531C839.028 147.764 838.721 146.76 838.721 145.5C838.721 144.697 838.855 143.966 839.163 143.327C839.451 142.706 839.873 142.213 840.43 141.848C840.968 141.501 841.621 141.319 842.369 141.319C843.176 141.319 843.848 141.538 844.386 141.958C844.923 142.378 845.269 142.944 845.461 143.656H848.303C848.187 142.743 847.861 141.94 847.343 141.228C846.824 140.534 846.152 139.986 845.307 139.584C844.462 139.201 843.502 139 842.446 139C841.083 139 839.892 139.274 838.894 139.803C837.895 140.351 837.127 141.1 836.59 142.086Z" fill="#248C9D"/>
<path d="M860.496 139.11V151.89H863.377V146.614H868.715V151.89H871.595V139.11H868.715V144.24H863.377V139.11H860.496Z" fill="#248C9D"/>
<path d="M883.678 139.11V151.89H892.914V149.535H886.558V146.577H891.551V144.331H886.558V141.465H892.703V139.11H883.678Z" fill="#248C9D"/>
<path d="M903.486 139.11V141.465H907.365V151.89H910.245V141.465H914.124V139.11H903.486Z" fill="#248C9D"/>
<path d="M925.484 139.11V151.89H934.72V149.535H928.365V146.577H933.357V144.331H928.365V141.465H934.509V139.11H925.484Z" fill="#248C9D"/>
<path d="M951.72 139.11H946.247V151.89H949.127V147.6H951.566L953.812 151.89H957L954.35 146.961C955.061 146.632 955.617 146.157 956.04 145.537C956.443 144.916 956.654 144.185 956.654 143.364C956.654 142.524 956.443 141.775 956.04 141.118C955.617 140.479 955.041 139.986 954.293 139.639C953.544 139.292 952.68 139.11 951.72 139.11ZM949.127 145.317V141.392H951.489C952.161 141.392 952.699 141.574 953.102 141.921C953.505 142.287 953.716 142.761 953.716 143.364C953.716 143.966 953.505 144.441 953.102 144.788C952.699 145.153 952.161 145.317 951.489 145.317H949.127Z" fill="#248C9D"/>
</g>
<defs>
<filter id="filter0_d" x="423" y="139" width="538" height="21" filterUnits="userSpaceOnUse" color-interpolation-filters="sRGB">
<feFlood flood-opacity="0" result="BackgroundImageFix"/>
<feColorMatrix in="SourceAlpha" type="matrix" values="0 0 0 0 0 0 0 0 0 0 0 0 0 0 0 0 0 0 127 0"/>
<feOffset dy="4"/>
<feGaussianBlur stdDeviation="2"/>
<feColorMatrix type="matrix" values="0 0 0 0 0 0 0 0 0 0 0 0 0 0 0 0 0 0 0.25 0"/>
<feBlend mode="normal" in2="BackgroundImageFix" result="effect1_dropShadow"/>
<feBlend mode="normal" in="SourceGraphic" in2="effect1_dropShadow" result="shape"/>
</filter>
<linearGradient id="paint0_linear" x1="208.94" y1="0.59082" x2="209" y2="127" gradientUnits="userSpaceOnUse">
<stop stop-opacity="0.4"/>
<stop offset="1" stop-color="white" stop-opacity="0"/>
</linearGradient>
<linearGradient id="paint1_linear" x1="700.252" y1="0.59082" x2="700.252" y2="127" gradientUnits="userSpaceOnUse">
<stop stop-opacity="0.17"/>
<stop offset="1" stop-color="white" stop-opacity="0"/>
</linearGradient>
<clipPath id="clip0">
<rect width="973" height="127" fill="white"/>
</clipPath>
</defs>
</svg>
